<?xml version="1.0" encoding="utf-8"?>
<!-- Generator: Adobe Illustrator 19.0.0, SVG Export Plug-In . SVG Version: 6.00 Build 0)  -->
<svg version="1.1" id="Layer_1" xmlns="http://www.w3.org/2000/svg" xmlns:xlink="http://www.w3.org/1999/xlink" x="0px" y="0px"
	 viewBox="-253 755.4 94.5 53.6" style="enable-background:new -253 755.4 94.5 53.6;" xml:space="preserve">
<g id="Layer_1_1_">
</g>
<g id="Layer_2">
	<g>
		<path d="M-183.5,808.4l-4.4-1l-13.1-7.4l-4-4l1.6-1.7l-2.1,0.6l-0.5-1.9l-0.5,2l-2.1-0.6l1.4,1.5l-3.9,4.3l-12.5,5.8l-5.6,1.5
			l-1.2-6.6l-0.1-12l1.5-5.7l2,0.5l-1.5-1.5l1.4-1.4l-1.8,0.5l-0.6-2.1l-0.6,2.1l-5.8-1.6l-12-6.9l-4-4.2l4.3-4.4l11.7-6.6l5.7-1.6
			l0.6,2l0.5-2l6.1,1.7l11.9,7l4,4l-1.3,1.3l1.8-0.5l0.4,1.7l0.4-1.7l1.7,0.5l-1.3-1.2l4.5-4.5l11.9-6.6l5.7-1.6l0.5,2l0.5-2
			l5.9,1.7l11.9,6.7l4.3,4.3l-4.6,4.4l-11.9,6.8l-5.7,1.4l-0.4-1.7l-0.4,1.6l-2.2-0.5l1.6,1.6l-1.3,1.2l1.8-0.5l1.7,5.6l-0.2,16.1
			L-183.5,808.4z M-187,805.6l2.4,0.6l0.8-1.7l0.2-15.4l-1-3.4l-7.2,1.8l5.2-5.1l-4.7-4.9l6.8,1.4l2-7l1.7,7.1l3.7-0.9l11.4-6.5
			l2.8-2.7l-2.8-2.8l-11.4-6.4l-3.6-1l-1.9,7.2l-1.9-7.2l-3.6,1l-11.4,6.4l-2.7,2.8l5.8,5.3l-7.6-2l-1.9,7.5l-1.9-7.5l-7.2,2
			l5.2-5.2l-2.4-2.4l-11.5-6.7l-3.8-1l-1.8,7.2l-2.1-7.2l-3.7,1l-11.2,6.4l-2.7,2.7l2.6,2.7l11.5,6.5l3.5,0.9l1.9-6.9l2.1,6.9l7.2-2
			l-5.3,5.3l5.2,5.2l-7.1-1.8l-0.9,3.5l0.1,11.6l0.7,4.2l3.4-0.9l11.9-5.5l2.4-2.6l-4.9-5.3l6.9,1.9l1.9-7.1l2,7l7.1-1.9l-5.1,5.4
			l2.6,2.6L-187,805.6z"/>
		<path d="M-183.2,809l-4.9-1.2l-13.2-7.5l-4.4-4.4l0.7-0.7l-0.9,0.2l-0.2-0.6l-0.2,0.8l-0.9-0.3l0.5,0.6l-4.4,4.7l-12.5,5.8
			l-6.2,1.7l-1.3-7.1l-0.1-12.1l1.7-6.2l0.8,0.2l-0.6-0.6l0.4-0.4l-0.4,0.1l-0.3-0.9l-0.2,0.9l-6.4-1.8l-12.1-7l-4.3-4.6l4.8-4.8
			l11.8-6.6l6.2-1.7l0.2,0.7l0.2-0.7l6.7,1.9l12,7.1l4.3,4.3l-0.3,0.3l0.5-0.1l0.1,0.3l0.1-0.2l0.3,0.1l-0.2-0.2l5-5l12-6.6l6.1-1.8
			l0.2,0.7l0.2-0.7l6.5,1.9l12,6.7l4.7,4.7l-5,4.8l-12,6.8l-6.2,1.5l-0.1-0.3l-0.1,0.2l-1-0.2l0.8,0.8l-0.3,0.3l0.4-0.1l1.8,6.1
			l-0.2,16.4L-183.2,809z M-187.7,806.9l3.9,0.9l1.5-3.1l0.2-15.9l-1.5-5l-3.1,0.8l2.3-2.2l-2.4-2.4l3.3,0.7l0.8-2.9l0.7,3l5.2-1.2
			l11.8-6.7l4.1-4l-3.9-3.9l-11.8-6.6l-5.3-1.5l-0.9,3.3l-0.9-3.3l-5.1,1.5l-11.7,6.5l-4.1,4.1l2.4,2.2l-3.2-0.9l-0.8,3.1l-0.8-3.1
			l-3.2,0.9l2.3-2.3l-3.6-3.6l-11.8-7l-5.5-1.6l-0.8,3.3l-1-3.3l-5.2,1.5l-11.6,6.5l-3.9,4l3.6,3.8l11.9,6.8l5.2,1.4l0.9-3.3l1,3.3
			l3.1-0.9l-2.4,2.4l2.4,2.4l-3.3-0.8l-1.4,5.1l0.1,11.9l1.1,6l5.1-1.4l12.3-5.7l3.5-3.8l-2.3-2.5l3.3,0.9l0.9-3.3l0.9,3.2l3.3-0.9
			l-2.5,2.6l3.6,3.6L-187.7,806.9z M-184.3,806.7l-2.9-0.7l-12.8-7.2l-2.9-2.9l4.2-4.5l-5.8,1.6l-1.6-5.8l-1.6,5.9l-5.7-1.6l4,4.4
			l-2.9,3.1l-11.9,5.5l-4.1,1.1l-0.8-4.7l-0.1-11.8l1.1-4l5.9,1.5l-4.3-4.3l4.3-4.3l-5.8,1.6l-1.7-5.7l-1.6,5.7l-4.1-1.1l-11.6-6.6
			l-2.9-3.1l3.1-3.2l11.3-6.4l4.2-1.2l1.7,5.9l1.5-5.9l4.4,1.2l11.6,6.8l2.8,2.8l-4.2,4.2l5.8-1.6l1.5,6l1.5-6l6.1,1.6l-4.6-4.3
			l3.2-3.2l11.5-6.4l4.1-1.2l1.6,5.9l1.6-5.9l4.2,1.2l11.5,6.5l3.2,3.2l-3.3,3.2l-11.5,6.6l-4.1,1l-1.4-5.7l-1.6,5.7l-5.6-1.2
			l3.9,4.1l-4.2,4.1l5.8-1.5l1.2,4l-0.2,15.7L-184.3,806.7z M-186.8,805.1l1.9,0.4l0.6-1.3l0.2-15.2l-0.9-2.9l-8.5,2.2l6.2-6
			l-5.5-5.7l7.9,1.7l2.4-8.4l2,8.5l3.1-0.7l11.3-6.5l2.4-2.3l-2.4-2.4l-11.3-6.3l-3-0.9l-2.3,8.5l-2.3-8.5l-3,0.9l-11.3,6.3
			l-2.3,2.4l6.9,6.3l-9.1-2.4l-2.2,8.9l-2.2-8.9l-8.5,2.3l6.2-6.2l-2-2l-11.4-6.7l-3.2-0.9l-2.1,8.5l-2.5-8.5l-3.2,0.9l-11.1,6.3
			l-2.3,2.3l2.2,2.3l11.4,6.5l3,0.8l2.2-8.1l2.4,8.1l8.6-2.4l-6.3,6.3l6.1,6.1l-8.4-2.1l-0.8,3l0.1,11.5l0.6,3.6l2.9-0.8l11.7-5.4
			l2-2.2l-5.8-6.3l8.1,2.2l2.3-8.4l2.3,8.3l8.3-2.2l-6,6.3l2.2,2.2L-186.8,805.1z"/>
	</g>
</g>
<g id="Layer_3">
</g>
</svg>
