<?xml version="1.0" encoding="utf-8"?>
<!-- Generator: Adobe Illustrator 19.1.0, SVG Export Plug-In . SVG Version: 6.00 Build 0)  -->
<!DOCTYPE svg PUBLIC "-//W3C//DTD SVG 1.1//EN" "http://www.w3.org/Graphics/SVG/1.1/DTD/svg11.dtd">
<svg version="1.1" xmlns="http://www.w3.org/2000/svg" xmlns:xlink="http://www.w3.org/1999/xlink" x="0px" y="0px"
	 viewBox="0 0 219 70" style="enable-background:new 0 0 219 70;" xml:space="preserve">
<style type="text/css">
	.st0{fill:#7CB3C0;}
	.st1{fill:none;stroke:#000000;stroke-miterlimit:10;}
</style>
<g id="Layer_1">
</g>
<g id="Layer_2">
	<polygon class="st1" points="116.2,19.1 112.5,22.9 116.2,26.3 111.3,25 110.1,29.8 108.9,25 104.2,26.3 107.6,22.9 104.2,19.5 
		91.9,12.3 86.8,10.9 85.6,15.7 84.2,10.9 79.2,12.3 67.2,19.1 63.6,22.8 67.1,26.5 79.4,33.5 84.2,34.8 85.5,30.1 86.9,34.8 
		91.6,33.5 88.1,37 91.6,40.5 86.8,39.3 85.5,44.1 85.6,56.5 86.6,62.1 91.4,60.8 104.1,54.9 107.4,51.3 104.1,47.7 108.8,49 
		110.1,44.2 111.4,48.9 116.2,47.6 112.7,51.3 116.2,54.8 129.7,62.4 133.2,63.2 134.5,60.4 134.7,43.9 133.3,39.2 128.6,40.4 
		132,37.1 128.7,33.7 133.4,34.7 134.7,30.2 135.8,34.8 140.8,33.6 153,26.6 156.8,22.9 153,19.1 140.8,12.3 135.9,10.9 134.6,15.7 
		133.3,10.9 128.4,12.3 	"/>
</g>
<g id="Layer_3">
</g>
</svg>
